# xmcd
#
# Track frame offsets: 
#        150
#        11474
#        23726
#        34813
#        47120
#        68482
#        84747
#        97142
#        113042
#        134731
#        146473
#        161972
#        172639
#        189139
#        206302
#        217111
#        243566
#        251756
#
# Disc length: 3573 seconds
#
# Revision: 18
# Processed by: cddbd v1.5.2PL0 Copyright (c) Steve Scherf et al.
# Submitted via: ExactAudioCopy v1.0b4
#
DISCID=030df312,f90df312
DTITLE=Various Artist - Play Me The Blues Disc 3
DYEAR=2000
DGENRE=Blues
TTITLE0=John Lee Hooker - Boom Boom
TTITLE1=Elmore James - Mean Mistreatin' Mama
TTITLE2=Elmore James - Coming Home
TTITLE3=John Mayall - Lost and Gone
TTITLE4=Johnny Winter - Going Down Slow
TTITLE5=B.B. King - It's My Own Fault Baby
TTITLE6=John Lee Hooker - Baby Lee
TTITLE7=Lightnin' Hopkins - Coffee for Mama
TTITLE8=Brownie McGhee and Sonny Terry - Blues for the Lowlands
TTITLE9=Lightning Slim - Ligtning's Bad Luck
TTITLE10=Jelly Roll Morton - Wolverine Blues
TTITLE11=Eric Clapton - West Coast Idea
TTITLE12=B.B. King - Outside Help (Short Version)
TTITLE13=Mississippi John Hurt - Lonesome Blues
TTITLE14=Lightnin' Hopkins - Nothin' but the Blues
TTITLE15=Big Mama Thornton - Little Red Rooster
TTITLE16=Big Joe Williams - Baby Please Don`t Go
TTITLE17=Mississippi John Hurt - Hot Time in the Old Town Tonight
EXTD=3 cd BOX
EXTT0=
EXTT1=
EXTT2=
EXTT3=
EXTT4=
EXTT5=
EXTT6=
EXTT7=
EXTT8=
EXTT9=
EXTT10=
EXTT11=
EXTT12=
EXTT13=
EXTT14=
EXTT15=
EXTT16=
EXTT17=
PLAYORDER=
